<svg viewBox="0 0 800 800" xmlns="http://www.w3.org/2000/svg"><path d="M278.77989841106466,729.1286303969791 L281.1441059923638,680.5911535721282 M281.1441059923638,680.5911535721282 L288.4324682004455,629.873273123554 M288.4324682004455,629.873273123554 L300.5416196314088,577.7202562026944 M300.5416196314088,577.7202562026944 L317.2962590556823,524.8998222303526 M317.2962590556823,524.8998222303526 L338.45165083236225,472.190556589016 M338.45165083236225,472.190556589016 L363.69723825601534,420.36999868651435 M363.69723825601534,420.36999868651435 L392.6612642455244,370.2028340809393 M392.6612642455244,370.2028340809393 L424.91639011554673,322.4292350873439 M424.91639011554673,322.4292350873439 L459.98625728742655,277.75349556105834 M459.98625728742655,277.75349556105834 L497.35277523425634,236.83333520221836 M497.35277523425634,236.83333520221836 L536.4640370562388,200.26999398430158 M536.4640370562388,200.26999398430158 L576.7428288467652,168.59914693583332 M576.7428288467652,168.59914693583332 L617.5954130220354,142.28294469818297 M278.77989841106466,729.1286303969791 L292.97907032004053,739.6590492300538 M292.97907032004053,739.6590492300538 L302.4074157225069,751.8617860876404 M302.4074157225069,751.8617860876404 L306.514948807692,765.0289988907034 M306.514948807692,765.0289988907034 L305.0600734472124,778.3960842926635 M305.0600734472124,778.3960842926635 L298.1242350521011,791.1860113045295 M298.1242350521011,791.1860113045295 L286.1080379970978,802.6544159960342 M286.1080379970978,802.6544159960342 L269.70831523938483,812.133255598375 M269.70831523938483,812.133255598375 L249.87823827344434,819.069819213702 M249.87823827344434,819.069819213702 L227.7716260978033,823.0594315227402 M227.7716260978033,823.0594315227402 L204.67586455661166,823.8691752125139 M204.67586455661166,823.8691752125139 L181.93622171304014,821.4517958109079 M181.93622171304014,821.4517958109079 L160.87715306329312,815.9484125395757 M160.87715306329312,815.9484125395757 L142.72458858401575,807.6802001503036 M142.72458858401575,807.6802001503036 L145.1432924495469,748.9451209218055 M145.1432924495469,748.9451209218055 L152.76402597785636,687.79608824409 M152.76402597785636,687.79608824409 L165.50737361179583,624.9099356635797 M165.50737361179583,624.9099356635797 L183.23620982737907,560.9842130369454 M183.23620982737907,560.9842130369454 L205.7567139090265,496.7294452569329 M205.7567139090265,496.7294452569329 L232.82076328583926,432.86069242856667 M232.82076328583926,432.86069242856667 L264.1286937404577,370.0892121792906 M264.1286937404577,370.0892121792906 L299.332553550228,309.1143383662365 M299.332553550228,309.1143383662365 L338.040284851945,250.6151351279823 M338.040284851945,250.6151351279823 L379.82022262093295,195.24260442420297 M379.82022262093295,195.24260442420297 L424.20623179187,143.61189189345885 M424.20623179187,143.61189189345885 L470.7031134340213,96.29540803791309 M470.7031134340213,96.29540803791309 L518.7924452980378,53.81626896741011 M518.7924452980378,53.81626896741011 L567.9386942496294,16.642003797564485 M567.9386942496294,16.642003797564485 L617.5954130220354,-14.82019480846651 M617.5954130220354,142.28294469818297 L633.8146091984557,149.31457886752116 M633.8146091984557,149.31457886752116 L649.0966620140556,151.37839707291806 M649.0966620140556,151.37839707291806 L662.5535693411364,148.3520186700419 M662.5535693411364,148.3520186700419 L673.4023671935502,140.40851694754645 M673.4023671935502,140.40851694754645 L681.0108497008192,128.00694119490345 M681.0108497008192,128.00694119490345 L684.9346809770411,111.86640694263855 M684.9346809770411,111.86640694263855 L684.94373549221,92.92441061826707 M684.94373549221,92.92441061826707 L681.0359373150798,72.28277839909828 M681.0359373150798,72.28277839909828 L673.4377368381372,51.14308450886381 M673.4377368381372,51.14308450886381 L662.5911146734397,30.736696449557314 M662.5911146734397,30.736696449557314 L649.127781279278,12.252277774842412 M649.127781279278,12.252277774842412 L633.8321772346683,-3.233719020212959 M633.8321772346683,-3.233719020212959 L617.5954130220354,-14.82019480846651 M142.72458858401575,807.6802001503036 L128.5341921023499,797.1294330858739 M128.5341921023499,797.1294330858739 L119.12992770277424,784.9110095247311 M119.12992770277424,784.9110095247311 L115.05626450779005,771.7363651902651 M115.05626450779005,771.7363651902651 L116.5470394429575,758.3718058969855 M116.5470394429575,758.3718058969855 L123.51258300533567,745.593783949922 M123.51258300533567,745.593783949922 L135.54548565500602,734.1439359322017 M135.54548565500602,734.1439359322017 L151.94508742693893,724.6860535720689 M151.94508742693893,724.6860535720689 L171.75824453660684,717.7680466293666 M171.75824453660684,717.7680466293666 L193.83501406922016,713.7903394151142 M193.83501406922016,713.7903394151142 L216.89484684558192,712.9831218266156 M216.89484684558192,712.9831218266156 L239.60070559454138,715.393069697798 M239.60070559454138,715.393069697798 L260.6358743784954,720.8807662627607 M260.6358743784954,720.8807662627607 L278.77989841106466,729.1286303969791 M617.5954130220354,-14.82019480846651 L601.3629824739937,-21.83405511914725 M601.3629824739937,-21.83405511914725 L586.0793850760579,-23.869175212513994 M586.0793850760579,-23.869175212513994 L572.6329767990935,-20.809748858598994 M572.6329767990935,-20.809748858598994 L561.8043164083138,-12.836420246779142 M561.8043164083138,-12.836420246779142 L554.2209965732307,-0.4150715970608303 M554.2209965732307,-0.4150715970608303 L550.3215886452492,15.73065178767888 M550.3215886452492,15.73065178767888 L550.3306231413359,34.66206471418758 M550.3306231413359,34.66206471418758 L554.2460319402326,55.27976557168358 M554.2460319402326,55.27976557168358 L561.8396212101799,76.38766242754701 M561.8396212101799,76.38766242754701 L572.6704666603396,96.76167221314688 M572.6704666603396,96.76167221314688 L586.1104721130594,115.22054876889564 M586.1104721130594,115.22054876889564 L601.3805411385546,130.69369102621187 M601.3805411385546,130.69369102621187 L617.5954130220354,142.28294469818297" stroke="black"  stroke-width="4"  fill="red"/></svg>